<svg width="319" height="343" viewBox="0 0 319 343" fill="none" xmlns="http://www.w3.org/2000/svg">
<path d="M183.5 272.5C157.419 292.73 138.648 298.651 98.5 300.5C121.819 312.384 151.94 314.056 157 313C162.06 311.944 184.5 290 183.5 272.5Z" fill="#252122" stroke="#252122"/>
<path d="M233 260C228.839 177.605 113.5 98 75 89.5C203 204 237.5 296.5 131.5 334C192.5 361.5 235.5 309.5 233 260Z" fill="#48919E" stroke="#48919E"/>
<path d="M230 214C246.934 173.615 252.417 147.114 253 91C267.5 117 274.5 207 241.5 255C238.911 239.13 236.998 230.198 230 214Z" fill="#252122" stroke="#252122"/>
<path d="M230.5 135C230.5 150.843 220.109 163.5 207.5 163.5C194.891 163.5 184.5 150.843 184.5 135C184.5 119.157 194.891 106.5 207.5 106.5C220.109 106.5 230.5 119.157 230.5 135Z" fill="#48919E" stroke="#48919E"/>
<path d="M238 36C172.769 19.2102 138.948 21.8675 83.5 48C96.0612 52.9252 101.666 56.5093 108 65C156.92 49.5949 186.29 48.8631 241.5 59C243.335 51.8726 243.188 47.1952 238 36Z" fill="#48919E" stroke="#48919E"/>
<path d="M67.9999 109.5C53.9425 87.6883 51.7552 63.2206 56.4999 1C40 1 16 21 28.9999 72.5C43.9999 119 55.952 124.162 67.9999 109.5Z" fill="#48919E" stroke="#48919E"/>
<path d="M30.641 103.705C21.7008 93.5464 18.9582 81.2335 17.5132 49.2258C8.66162 50.3405 -2.93078 62.1473 7.34606 87.4965C18.3752 110.164 25.1181 111.986 30.641 103.705Z" fill="#48919E" stroke="#48919E"/>
<path d="M272.5 110.5C271.671 67.1409 267.042 43.8835 248.5 4.99999C272.324 4.88416 287.111 8.5 291.5 48C293.5 66 293.979 81.3766 291.5 96.5C289.307 109.912 284.534 112.045 272.5 110.5Z" fill="#48919E" stroke="#48919E"/>
<path d="M300.5 88C305.327 67.6805 306.348 56.2242 300.5 35.5C310.884 26.6754 315.818 30.5 316.5 38.5C316.756 41.5 321 75.8416 310 90.5C307.374 94 305.345 94.6644 300.5 88Z" fill="#48919E" stroke="#48919E"/>
</svg>
